<?xml version="1.0" encoding="iso-8859-1"?>
<!-- Uploaded to: SVG Repo, www.svgrepo.com, Generator: SVG Repo Mixer Tools -->
<svg fill="#000000" version="1.1" id="Layer_1" xmlns="http://www.w3.org/2000/svg" xmlns:xlink="http://www.w3.org/1999/xlink" 
	 viewBox="0 0 512 512" xml:space="preserve">
<path d="M427.078,54.953c43.651,0,58.048,36.163,58.629,37.672l15.06-5.649c-0.737-1.964-18.673-48.108-73.688-48.108
	c-28.733,0-46.764,13.078-56.83,24.051c-10.869,11.846-14.961,23.823-15.129,24.327l15.24,5.141
	C370.884,90.859,383.754,54.953,427.078,54.953z"/>
<path d="M427.078,81.759c-30.421,0-39.425,25.833-39.792,26.932l15.251,5.11c0.054-0.16,5.565-15.958,24.543-15.958
	c18.98,0,25.364,15.624,25.603,16.227l15.06-5.649C467.332,107.334,457.392,81.759,427.078,81.759z"/>
<path d="M427.078,124.649c-16.259,0-29.487,13.228-29.487,29.487s13.228,29.487,29.487,29.487s29.487-13.228,29.487-29.487
	S443.336,124.649,427.078,124.649z M427.078,167.539c-7.391,0-13.403-6.012-13.403-13.403s6.012-13.403,13.403-13.403
	c7.391,0,13.403,6.012,13.403,13.403S434.468,167.539,427.078,167.539z"/>
<path d="M249.298,81.759H104.545v176.921h144.754V81.759z M233.215,162.178h-48.251V97.843h48.251V162.178z M168.88,97.843v64.335
	h-48.251V97.843H168.88z M120.628,178.262h48.251v64.335h-48.251V178.262z M184.963,242.597v-64.335h48.251v64.335H184.963z"/>
<rect x="230.534" y="296.209" width="21.445" height="16.084"/>
<rect x="91.141" y="403.435" width="21.445" height="16.084"/>
<rect x="91.141" y="371.267" width="21.445" height="16.084"/>
<rect x="123.309" y="403.435" width="21.445" height="16.084"/>
<rect x="219.812" y="440.963" width="26.806" height="16.084"/>
<path d="M512,365.906V210.429H329.717V6.702H24.126v482.513H0v16.084h353.843v-16.084h-24.126V365.906H512z M495.916,349.822H297.55
	V226.513h198.366V349.822z M72.377,457.047h125.99v-16.084H72.377V54.953h209.089v434.262H72.377V457.047z M40.209,22.785h273.424
	v187.644H297.55V38.869H56.293v450.346H40.209V22.785z M313.634,489.215H297.55V365.906h16.084V489.215z"/>
<path d="M340.44,258.681h21.445v29.487h16.084v-29.487h37.674c-3.478,5.421-5.506,11.858-5.506,18.764
	c0,19.216,15.632,34.848,34.848,34.848c19.216,0,34.848-15.632,34.848-34.848c0-19.216-15.632-34.848-34.848-34.848H324.356v50.932
	h16.084V258.681z M463.749,277.445c0,10.346-8.418,18.764-18.764,18.764c-10.346,0-18.764-8.418-18.764-18.764
	c0-10.346,8.418-18.764,18.764-18.764C455.33,258.681,463.749,267.099,463.749,277.445z"/>
<rect x="316.314" y="317.654" width="21.445" height="16.084"/>
<rect x="348.482" y="317.654" width="21.445" height="16.084"/>
</svg>